<svg width="268" height="107" viewBox="0 0 268 107" fill="none" xmlns="http://www.w3.org/2000/svg">
<path d="M24 23.5V38.5L32.5 78C47.6667 83.5 79.1 94.8 83.5 96C89 97.5 137.5 105.5 140 106.5C142 107.3 210.5 82.167 244.5 69.5L233.5 27.5L189.5 20.5L145.5 16.5L129 18.5L103.5 10L24 23.5Z" fill="url(#paint0_linear_2114_345)"/>
<path d="M69.5 35L51 62.5L144 65L122.5 42.5H120L109.5 26.5H104.5L91 7L76 35H69.5Z" fill="url(#paint1_linear_2114_345)"/>
<path d="M132.5 33L114 60.5L207 63L185.5 40.5H183L172.5 24.5H167.5L154 5L139 33H132.5Z" fill="url(#paint2_linear_2114_345)"/>
<path d="M175.876 39.7586L153 73.897L268 77L241.414 49.069H238.323L225.339 29.2069H219.156L202.462 5L183.914 39.7586H175.876Z" fill="url(#paint3_linear_2114_345)"/>
<path d="M22.8763 34.7586L0 68.8965L115 72L88.414 44.069H85.3226L72.3387 24.2069H66.1559L49.4624 0L30.914 34.7586H22.8763Z" fill="url(#paint4_linear_2114_345)"/>
<path d="M68.0095 39.4835C68.1156 38.946 68.8844 38.946 68.9905 39.4835L74.0113 64.9031C74.0723 65.2122 73.8358 65.5 73.5207 65.5H63.4793C63.1642 65.5 62.9277 65.2122 62.9887 64.9031L68.0095 39.4835Z" fill="url(#paint5_linear_2114_345)"/>
<path d="M61.0095 44.4835C61.1156 43.946 61.8844 43.946 61.9905 44.4835L67.0113 69.903C67.0723 70.212 66.8358 70.5 66.5207 70.5H56.4793C56.1642 70.5 55.9277 70.212 55.9887 69.903L61.0095 44.4835Z" fill="url(#paint6_linear_2114_345)"/>
<path d="M76.0125 44.1391C76.1307 43.6206 76.8693 43.6206 76.9875 44.1391L82.8559 69.889C82.9272 70.202 82.6894 70.5 82.3684 70.5H70.6316C70.3106 70.5 70.0728 70.202 70.1441 69.889L76.0125 44.1391Z" fill="url(#paint7_linear_2114_345)"/>
<path d="M85.0125 41.1391C85.1307 40.6206 85.8693 40.6206 85.9875 41.1391L91.8559 66.8889C91.9272 67.2019 91.6894 67.5 91.3684 67.5H79.6316C79.3106 67.5 79.0728 67.2019 79.1441 66.8889L85.0125 41.1391Z" fill="url(#paint8_linear_2114_345)"/>
<path d="M92.0125 42.1391C92.1307 41.6206 92.8693 41.6206 92.9875 42.1391L98.8559 67.8889C98.9272 68.2019 98.6894 68.5 98.3684 68.5H86.6316C86.3106 68.5 86.0728 68.2019 86.1441 67.8889L92.0125 42.1391Z" fill="url(#paint9_linear_2114_345)"/>
<path d="M99.0125 44.1391C99.1307 43.6206 99.8693 43.6206 99.9875 44.1391L105.856 69.889C105.927 70.202 105.689 70.5 105.368 70.5H93.6316C93.3106 70.5 93.0728 70.202 93.1441 69.889L99.0125 44.1391Z" fill="url(#paint10_linear_2114_345)"/>
<path d="M105.012 38.1391C105.131 37.6206 105.869 37.6206 105.988 38.1391L111.856 63.8889C111.927 64.2019 111.689 64.5 111.368 64.5H99.6316C99.3106 64.5 99.0728 64.2019 99.1441 63.8889L105.012 38.1391Z" fill="url(#paint11_linear_2114_345)"/>
<path d="M115.012 42.1391C115.131 41.6206 115.869 41.6206 115.988 42.1391L121.856 67.8889C121.927 68.2019 121.689 68.5 121.368 68.5H109.632C109.311 68.5 109.073 68.2019 109.144 67.8889L115.012 42.1391Z" fill="url(#paint12_linear_2114_345)"/>
<path d="M124.012 46.1391C124.131 45.6206 124.869 45.6206 124.988 46.1391L130.856 71.889C130.927 72.202 130.689 72.5 130.368 72.5H118.632C118.311 72.5 118.073 72.202 118.144 71.889L124.012 46.1391Z" fill="url(#paint13_linear_2114_345)"/>
<path d="M133.012 41.1391C133.131 40.6206 133.869 40.6206 133.988 41.1391L139.856 66.8889C139.927 67.2019 139.689 67.5 139.368 67.5H127.632C127.311 67.5 127.073 67.2019 127.144 66.8889L133.012 41.1391Z" fill="url(#paint14_linear_2114_345)"/>
<path d="M139.012 46.1391C139.131 45.6206 139.869 45.6206 139.988 46.1391L145.856 71.889C145.927 72.202 145.689 72.5 145.368 72.5H133.632C133.311 72.5 133.073 72.202 133.144 71.889L139.012 46.1391Z" fill="url(#paint15_linear_2114_345)"/>
<path d="M144.012 48.1391C144.131 47.6206 144.869 47.6206 144.988 48.1391L150.856 73.889C150.927 74.202 150.689 74.5 150.368 74.5H138.632C138.311 74.5 138.073 74.202 138.144 73.889L144.012 48.1391Z" fill="url(#paint16_linear_2114_345)"/>
<path d="M151.012 42.1391C151.131 41.6206 151.869 41.6206 151.988 42.1391L157.856 67.8889C157.927 68.2019 157.689 68.5 157.368 68.5H145.632C145.311 68.5 145.073 68.2019 145.144 67.8889L151.012 42.1391Z" fill="url(#paint17_linear_2114_345)"/>
<path d="M159.012 46.1391C159.131 45.6206 159.869 45.6206 159.988 46.1391L165.856 71.889C165.927 72.202 165.689 72.5 165.368 72.5H153.632C153.311 72.5 153.073 72.202 153.144 71.889L159.012 46.1391Z" fill="url(#paint18_linear_2114_345)"/>
<path d="M167.012 42.1391C167.131 41.6206 167.869 41.6206 167.988 42.1391L173.856 67.8889C173.927 68.2019 173.689 68.5 173.368 68.5H161.632C161.311 68.5 161.073 68.2019 161.144 67.8889L167.012 42.1391Z" fill="url(#paint19_linear_2114_345)"/>
<path d="M175.012 44.1391C175.131 43.6206 175.869 43.6206 175.988 44.1391L181.856 69.889C181.927 70.202 181.689 70.5 181.368 70.5H169.632C169.311 70.5 169.073 70.202 169.144 69.889L175.012 44.1391Z" fill="url(#paint20_linear_2114_345)"/>
<path d="M183.012 39.1391C183.131 38.6206 183.869 38.6206 183.988 39.1391L189.856 64.8889C189.927 65.2019 189.689 65.5 189.368 65.5H177.632C177.311 65.5 177.073 65.2019 177.144 64.8889L183.012 39.1391Z" fill="url(#paint21_linear_2114_345)"/>
<path d="M191.012 42.1391C191.131 41.6206 191.869 41.6206 191.988 42.1391L197.856 67.8889C197.927 68.2019 197.689 68.5 197.368 68.5H185.632C185.311 68.5 185.073 68.2019 185.144 67.8889L191.012 42.1391Z" fill="url(#paint22_linear_2114_345)"/>
<path d="M199.012 35.1391C199.131 34.6206 199.869 34.6206 199.988 35.1391L205.856 60.8889C205.927 61.2019 205.689 61.5 205.368 61.5H193.632C193.311 61.5 193.073 61.2019 193.144 60.8889L199.012 35.1391Z" fill="url(#paint23_linear_2114_345)"/>
<path d="M207.012 38.1391C207.131 37.6206 207.869 37.6206 207.988 38.1391L213.856 63.8889C213.927 64.2019 213.689 64.5 213.368 64.5H201.632C201.311 64.5 201.073 64.2019 201.144 63.8889L207.012 38.1391Z" fill="url(#paint24_linear_2114_345)"/>
<path d="M56.0125 42.1391C56.1307 41.6206 56.8693 41.6206 56.9875 42.1391L62.8559 67.8889C62.9272 68.2019 62.6894 68.5 62.3684 68.5H50.6316C50.3106 68.5 50.0728 68.2019 50.1441 67.8889L56.0125 42.1391Z" fill="url(#paint25_linear_2114_345)"/>
<path d="M49.0125 35.1391C49.1307 34.6206 49.8693 34.6206 49.9875 35.1391L55.8559 60.8889C55.9272 61.2019 55.6894 61.5 55.3684 61.5H43.6316C43.3106 61.5 43.0728 61.2019 43.1441 60.8889L49.0125 35.1391Z" fill="url(#paint26_linear_2114_345)"/>
<defs>
<linearGradient id="paint0_linear_2114_345" x1="134.25" y1="10" x2="134.25" y2="106.519" gradientUnits="userSpaceOnUse">
<stop stop-color="#9FDEF2"/>
<stop offset="0.553516" stop-color="#A8FFAC"/>
</linearGradient>
<linearGradient id="paint1_linear_2114_345" x1="97.5" y1="7" x2="97.5" y2="65" gradientUnits="userSpaceOnUse">
<stop offset="0.290234" stop-color="#86D2A0"/>
<stop offset="1" stop-color="#517D91"/>
</linearGradient>
<linearGradient id="paint2_linear_2114_345" x1="160.5" y1="5" x2="160.5" y2="63" gradientUnits="userSpaceOnUse">
<stop offset="0.290234" stop-color="#86D2A0"/>
<stop offset="1" stop-color="#517D91"/>
</linearGradient>
<linearGradient id="paint3_linear_2114_345" x1="210.5" y1="5" x2="210.5" y2="77" gradientUnits="userSpaceOnUse">
<stop offset="0.290234" stop-color="#86D2A0"/>
<stop offset="1" stop-color="#517D91"/>
</linearGradient>
<linearGradient id="paint4_linear_2114_345" x1="57.5" y1="0" x2="57.5" y2="72" gradientUnits="userSpaceOnUse">
<stop offset="0.290234" stop-color="#86D2A0"/>
<stop offset="1" stop-color="#517D91"/>
</linearGradient>
<linearGradient id="paint5_linear_2114_345" x1="68.5" y1="37" x2="68.5" y2="75" gradientUnits="userSpaceOnUse">
<stop stop-color="#236B70"/>
<stop offset="1" stop-color="#519DA2" stop-opacity="0"/>
</linearGradient>
<linearGradient id="paint6_linear_2114_345" x1="61.5" y1="42" x2="61.5" y2="80" gradientUnits="userSpaceOnUse">
<stop stop-color="#236B70"/>
<stop offset="1" stop-color="#519DA2" stop-opacity="0"/>
</linearGradient>
<linearGradient id="paint7_linear_2114_345" x1="76.5" y1="42" x2="76.5" y2="80" gradientUnits="userSpaceOnUse">
<stop stop-color="#236B70"/>
<stop offset="1" stop-color="#519DA2" stop-opacity="0"/>
</linearGradient>
<linearGradient id="paint8_linear_2114_345" x1="85.5" y1="39" x2="85.5" y2="77" gradientUnits="userSpaceOnUse">
<stop stop-color="#236B70"/>
<stop offset="1" stop-color="#519DA2" stop-opacity="0"/>
</linearGradient>
<linearGradient id="paint9_linear_2114_345" x1="92.5" y1="40" x2="92.5" y2="78" gradientUnits="userSpaceOnUse">
<stop stop-color="#236B70"/>
<stop offset="1" stop-color="#519DA2" stop-opacity="0"/>
</linearGradient>
<linearGradient id="paint10_linear_2114_345" x1="99.5" y1="42" x2="99.5" y2="80" gradientUnits="userSpaceOnUse">
<stop stop-color="#236B70"/>
<stop offset="1" stop-color="#519DA2" stop-opacity="0"/>
</linearGradient>
<linearGradient id="paint11_linear_2114_345" x1="105.5" y1="36" x2="105.5" y2="74" gradientUnits="userSpaceOnUse">
<stop stop-color="#236B70"/>
<stop offset="1" stop-color="#519DA2" stop-opacity="0"/>
</linearGradient>
<linearGradient id="paint12_linear_2114_345" x1="115.5" y1="40" x2="115.5" y2="78" gradientUnits="userSpaceOnUse">
<stop stop-color="#236B70"/>
<stop offset="1" stop-color="#519DA2" stop-opacity="0"/>
</linearGradient>
<linearGradient id="paint13_linear_2114_345" x1="124.5" y1="44" x2="124.5" y2="82" gradientUnits="userSpaceOnUse">
<stop stop-color="#236B70"/>
<stop offset="1" stop-color="#519DA2" stop-opacity="0"/>
</linearGradient>
<linearGradient id="paint14_linear_2114_345" x1="133.5" y1="39" x2="133.5" y2="77" gradientUnits="userSpaceOnUse">
<stop stop-color="#236B70"/>
<stop offset="1" stop-color="#519DA2" stop-opacity="0"/>
</linearGradient>
<linearGradient id="paint15_linear_2114_345" x1="139.5" y1="44" x2="139.5" y2="82" gradientUnits="userSpaceOnUse">
<stop stop-color="#236B70"/>
<stop offset="1" stop-color="#519DA2" stop-opacity="0"/>
</linearGradient>
<linearGradient id="paint16_linear_2114_345" x1="144.5" y1="46" x2="144.5" y2="84" gradientUnits="userSpaceOnUse">
<stop stop-color="#236B70"/>
<stop offset="1" stop-color="#519DA2" stop-opacity="0"/>
</linearGradient>
<linearGradient id="paint17_linear_2114_345" x1="151.5" y1="40" x2="151.5" y2="78" gradientUnits="userSpaceOnUse">
<stop stop-color="#236B70"/>
<stop offset="1" stop-color="#519DA2" stop-opacity="0"/>
</linearGradient>
<linearGradient id="paint18_linear_2114_345" x1="159.5" y1="44" x2="159.5" y2="82" gradientUnits="userSpaceOnUse">
<stop stop-color="#236B70"/>
<stop offset="1" stop-color="#519DA2" stop-opacity="0"/>
</linearGradient>
<linearGradient id="paint19_linear_2114_345" x1="167.5" y1="40" x2="167.5" y2="78" gradientUnits="userSpaceOnUse">
<stop stop-color="#236B70"/>
<stop offset="1" stop-color="#519DA2" stop-opacity="0"/>
</linearGradient>
<linearGradient id="paint20_linear_2114_345" x1="175.5" y1="42" x2="175.5" y2="80" gradientUnits="userSpaceOnUse">
<stop stop-color="#236B70"/>
<stop offset="1" stop-color="#519DA2" stop-opacity="0"/>
</linearGradient>
<linearGradient id="paint21_linear_2114_345" x1="183.5" y1="37" x2="183.5" y2="75" gradientUnits="userSpaceOnUse">
<stop stop-color="#236B70"/>
<stop offset="1" stop-color="#519DA2" stop-opacity="0"/>
</linearGradient>
<linearGradient id="paint22_linear_2114_345" x1="191.5" y1="40" x2="191.5" y2="78" gradientUnits="userSpaceOnUse">
<stop stop-color="#236B70"/>
<stop offset="1" stop-color="#519DA2" stop-opacity="0"/>
</linearGradient>
<linearGradient id="paint23_linear_2114_345" x1="199.5" y1="33" x2="199.5" y2="71" gradientUnits="userSpaceOnUse">
<stop stop-color="#236B70"/>
<stop offset="1" stop-color="#519DA2" stop-opacity="0"/>
</linearGradient>
<linearGradient id="paint24_linear_2114_345" x1="207.5" y1="36" x2="207.5" y2="74" gradientUnits="userSpaceOnUse">
<stop stop-color="#236B70"/>
<stop offset="1" stop-color="#519DA2" stop-opacity="0"/>
</linearGradient>
<linearGradient id="paint25_linear_2114_345" x1="56.5" y1="40" x2="56.5" y2="78" gradientUnits="userSpaceOnUse">
<stop stop-color="#236B70"/>
<stop offset="1" stop-color="#519DA2" stop-opacity="0"/>
</linearGradient>
<linearGradient id="paint26_linear_2114_345" x1="49.5" y1="33" x2="49.5" y2="71" gradientUnits="userSpaceOnUse">
<stop stop-color="#236B70"/>
<stop offset="1" stop-color="#519DA2" stop-opacity="0"/>
</linearGradient>
</defs>
</svg>
